<mxfile host="app.diagrams.net" modified="2024-05-20T22:30:41.067Z" agent="Mozilla/5.0 (Windows NT 10.0; Win64; x64) AppleWebKit/537.36 (KHTML, like Gecko) Chrome/125.0.0.0 Safari/537.36" etag="a2-xRJBFfmd-2s6yuZrT" version="24.4.4" type="device">
  <diagram name="Page-1" id="8t_fiM-S_J1gItqM3pEe">
    <mxGraphModel dx="1888" dy="2008" grid="1" gridSize="10" guides="1" tooltips="1" connect="1" arrows="1" fold="1" page="1" pageScale="1" pageWidth="850" pageHeight="1100" math="0" shadow="0">
      <root>
        <mxCell id="0" />
        <mxCell id="1" parent="0" />
        <mxCell id="Frr93Aqm_Cwvmtq9NTWZ-53" value="" style="group" vertex="1" connectable="0" parent="1">
          <mxGeometry x="190" width="1430" height="740" as="geometry" />
        </mxCell>
        <mxCell id="6fAx4qnoaYqLxd-1GEmF-5" style="edgeStyle=orthogonalEdgeStyle;rounded=0;orthogonalLoop=1;jettySize=auto;html=1;entryX=0.5;entryY=0;entryDx=0;entryDy=0;" parent="Frr93Aqm_Cwvmtq9NTWZ-53" source="6fAx4qnoaYqLxd-1GEmF-1" target="6fAx4qnoaYqLxd-1GEmF-3" edge="1">
          <mxGeometry relative="1" as="geometry" />
        </mxCell>
        <mxCell id="6fAx4qnoaYqLxd-1GEmF-6" style="edgeStyle=orthogonalEdgeStyle;rounded=0;orthogonalLoop=1;jettySize=auto;html=1;entryX=0.5;entryY=0;entryDx=0;entryDy=0;" parent="Frr93Aqm_Cwvmtq9NTWZ-53" source="6fAx4qnoaYqLxd-1GEmF-1" edge="1">
          <mxGeometry relative="1" as="geometry">
            <mxPoint x="335" y="110" as="targetPoint" />
          </mxGeometry>
        </mxCell>
        <mxCell id="6fAx4qnoaYqLxd-1GEmF-1" value="A" style="ellipse;whiteSpace=wrap;html=1;aspect=fixed;" parent="Frr93Aqm_Cwvmtq9NTWZ-53" vertex="1">
          <mxGeometry x="210" y="30" width="50" height="50" as="geometry" />
        </mxCell>
        <mxCell id="Frr93Aqm_Cwvmtq9NTWZ-2" style="edgeStyle=orthogonalEdgeStyle;rounded=0;orthogonalLoop=1;jettySize=auto;html=1;entryX=0;entryY=0.5;entryDx=0;entryDy=0;" edge="1" parent="Frr93Aqm_Cwvmtq9NTWZ-53" source="6fAx4qnoaYqLxd-1GEmF-3" target="Frr93Aqm_Cwvmtq9NTWZ-1">
          <mxGeometry relative="1" as="geometry">
            <Array as="points">
              <mxPoint y="135" />
              <mxPoint y="550" />
            </Array>
          </mxGeometry>
        </mxCell>
        <mxCell id="6fAx4qnoaYqLxd-1GEmF-3" value="B" style="ellipse;whiteSpace=wrap;html=1;aspect=fixed;" parent="Frr93Aqm_Cwvmtq9NTWZ-53" vertex="1">
          <mxGeometry x="100" y="110" width="50" height="50" as="geometry" />
        </mxCell>
        <mxCell id="Frr93Aqm_Cwvmtq9NTWZ-1" value="S" style="ellipse;whiteSpace=wrap;html=1;aspect=fixed;" vertex="1" parent="Frr93Aqm_Cwvmtq9NTWZ-53">
          <mxGeometry x="100" y="525" width="50" height="50" as="geometry" />
        </mxCell>
        <mxCell id="Frr93Aqm_Cwvmtq9NTWZ-5" style="edgeStyle=orthogonalEdgeStyle;rounded=0;orthogonalLoop=1;jettySize=auto;html=1;entryX=0;entryY=0.5;entryDx=0;entryDy=0;" edge="1" parent="Frr93Aqm_Cwvmtq9NTWZ-53" source="Frr93Aqm_Cwvmtq9NTWZ-3" target="Frr93Aqm_Cwvmtq9NTWZ-4">
          <mxGeometry relative="1" as="geometry" />
        </mxCell>
        <mxCell id="Frr93Aqm_Cwvmtq9NTWZ-3" value="C1" style="ellipse;whiteSpace=wrap;html=1;aspect=fixed;" vertex="1" parent="Frr93Aqm_Cwvmtq9NTWZ-53">
          <mxGeometry x="310" y="110" width="50" height="50" as="geometry" />
        </mxCell>
        <mxCell id="Frr93Aqm_Cwvmtq9NTWZ-8" style="edgeStyle=orthogonalEdgeStyle;rounded=0;orthogonalLoop=1;jettySize=auto;html=1;" edge="1" parent="Frr93Aqm_Cwvmtq9NTWZ-53" source="Frr93Aqm_Cwvmtq9NTWZ-4" target="Frr93Aqm_Cwvmtq9NTWZ-6">
          <mxGeometry relative="1" as="geometry" />
        </mxCell>
        <mxCell id="Frr93Aqm_Cwvmtq9NTWZ-9" style="edgeStyle=orthogonalEdgeStyle;rounded=0;orthogonalLoop=1;jettySize=auto;html=1;entryX=0.5;entryY=0;entryDx=0;entryDy=0;" edge="1" parent="Frr93Aqm_Cwvmtq9NTWZ-53" source="Frr93Aqm_Cwvmtq9NTWZ-4" target="Frr93Aqm_Cwvmtq9NTWZ-7">
          <mxGeometry relative="1" as="geometry">
            <Array as="points">
              <mxPoint x="435" y="200" />
              <mxPoint x="185" y="200" />
            </Array>
          </mxGeometry>
        </mxCell>
        <mxCell id="Frr93Aqm_Cwvmtq9NTWZ-4" value="C2" style="ellipse;whiteSpace=wrap;html=1;aspect=fixed;" vertex="1" parent="Frr93Aqm_Cwvmtq9NTWZ-53">
          <mxGeometry x="410" y="110" width="50" height="50" as="geometry" />
        </mxCell>
        <mxCell id="Frr93Aqm_Cwvmtq9NTWZ-11" style="edgeStyle=orthogonalEdgeStyle;rounded=0;orthogonalLoop=1;jettySize=auto;html=1;entryX=0;entryY=0.5;entryDx=0;entryDy=0;" edge="1" parent="Frr93Aqm_Cwvmtq9NTWZ-53" source="Frr93Aqm_Cwvmtq9NTWZ-6" target="Frr93Aqm_Cwvmtq9NTWZ-10">
          <mxGeometry relative="1" as="geometry" />
        </mxCell>
        <mxCell id="Frr93Aqm_Cwvmtq9NTWZ-13" style="edgeStyle=orthogonalEdgeStyle;rounded=0;orthogonalLoop=1;jettySize=auto;html=1;entryX=0;entryY=0.5;entryDx=0;entryDy=0;" edge="1" parent="Frr93Aqm_Cwvmtq9NTWZ-53" source="Frr93Aqm_Cwvmtq9NTWZ-6" target="Frr93Aqm_Cwvmtq9NTWZ-12">
          <mxGeometry relative="1" as="geometry">
            <Array as="points">
              <mxPoint x="515" y="215" />
            </Array>
          </mxGeometry>
        </mxCell>
        <mxCell id="Frr93Aqm_Cwvmtq9NTWZ-6" value="D" style="ellipse;whiteSpace=wrap;html=1;aspect=fixed;" vertex="1" parent="Frr93Aqm_Cwvmtq9NTWZ-53">
          <mxGeometry x="490" y="110" width="50" height="50" as="geometry" />
        </mxCell>
        <mxCell id="Frr93Aqm_Cwvmtq9NTWZ-49" style="edgeStyle=orthogonalEdgeStyle;rounded=0;orthogonalLoop=1;jettySize=auto;html=1;entryX=0.5;entryY=0;entryDx=0;entryDy=0;" edge="1" parent="Frr93Aqm_Cwvmtq9NTWZ-53" source="Frr93Aqm_Cwvmtq9NTWZ-7" target="Frr93Aqm_Cwvmtq9NTWZ-47">
          <mxGeometry relative="1" as="geometry" />
        </mxCell>
        <mxCell id="Frr93Aqm_Cwvmtq9NTWZ-50" style="edgeStyle=orthogonalEdgeStyle;rounded=0;orthogonalLoop=1;jettySize=auto;html=1;entryX=0.5;entryY=0;entryDx=0;entryDy=0;" edge="1" parent="Frr93Aqm_Cwvmtq9NTWZ-53" source="Frr93Aqm_Cwvmtq9NTWZ-7" target="Frr93Aqm_Cwvmtq9NTWZ-48">
          <mxGeometry relative="1" as="geometry" />
        </mxCell>
        <mxCell id="Frr93Aqm_Cwvmtq9NTWZ-7" value="P" style="ellipse;whiteSpace=wrap;html=1;aspect=fixed;" vertex="1" parent="Frr93Aqm_Cwvmtq9NTWZ-53">
          <mxGeometry x="160" y="240" width="50" height="50" as="geometry" />
        </mxCell>
        <mxCell id="Frr93Aqm_Cwvmtq9NTWZ-14" style="edgeStyle=orthogonalEdgeStyle;rounded=0;orthogonalLoop=1;jettySize=auto;html=1;entryX=1;entryY=0.5;entryDx=0;entryDy=0;" edge="1" parent="Frr93Aqm_Cwvmtq9NTWZ-53" source="Frr93Aqm_Cwvmtq9NTWZ-10" target="Frr93Aqm_Cwvmtq9NTWZ-12">
          <mxGeometry relative="1" as="geometry" />
        </mxCell>
        <mxCell id="Frr93Aqm_Cwvmtq9NTWZ-10" value="E" style="ellipse;whiteSpace=wrap;html=1;aspect=fixed;" vertex="1" parent="Frr93Aqm_Cwvmtq9NTWZ-53">
          <mxGeometry x="590" y="110" width="50" height="50" as="geometry" />
        </mxCell>
        <mxCell id="Frr93Aqm_Cwvmtq9NTWZ-16" style="edgeStyle=orthogonalEdgeStyle;rounded=0;orthogonalLoop=1;jettySize=auto;html=1;entryX=0.5;entryY=0;entryDx=0;entryDy=0;" edge="1" parent="Frr93Aqm_Cwvmtq9NTWZ-53" source="Frr93Aqm_Cwvmtq9NTWZ-12" target="Frr93Aqm_Cwvmtq9NTWZ-15">
          <mxGeometry relative="1" as="geometry">
            <Array as="points">
              <mxPoint x="485" y="230" />
            </Array>
          </mxGeometry>
        </mxCell>
        <mxCell id="Frr93Aqm_Cwvmtq9NTWZ-19" style="edgeStyle=orthogonalEdgeStyle;rounded=0;orthogonalLoop=1;jettySize=auto;html=1;entryX=0.5;entryY=0;entryDx=0;entryDy=0;" edge="1" parent="Frr93Aqm_Cwvmtq9NTWZ-53" source="Frr93Aqm_Cwvmtq9NTWZ-12" target="Frr93Aqm_Cwvmtq9NTWZ-17">
          <mxGeometry relative="1" as="geometry">
            <Array as="points">
              <mxPoint x="655" y="230" />
            </Array>
          </mxGeometry>
        </mxCell>
        <mxCell id="Frr93Aqm_Cwvmtq9NTWZ-12" value="F" style="ellipse;whiteSpace=wrap;html=1;aspect=fixed;" vertex="1" parent="Frr93Aqm_Cwvmtq9NTWZ-53">
          <mxGeometry x="540" y="190" width="50" height="50" as="geometry" />
        </mxCell>
        <mxCell id="Frr93Aqm_Cwvmtq9NTWZ-41" style="edgeStyle=orthogonalEdgeStyle;rounded=0;orthogonalLoop=1;jettySize=auto;html=1;entryX=1;entryY=0.5;entryDx=0;entryDy=0;" edge="1" parent="Frr93Aqm_Cwvmtq9NTWZ-53" source="Frr93Aqm_Cwvmtq9NTWZ-15" target="Frr93Aqm_Cwvmtq9NTWZ-1">
          <mxGeometry relative="1" as="geometry">
            <Array as="points">
              <mxPoint x="485" y="550" />
            </Array>
          </mxGeometry>
        </mxCell>
        <mxCell id="Frr93Aqm_Cwvmtq9NTWZ-15" value="M" style="ellipse;whiteSpace=wrap;html=1;aspect=fixed;" vertex="1" parent="Frr93Aqm_Cwvmtq9NTWZ-53">
          <mxGeometry x="460" y="440" width="50" height="50" as="geometry" />
        </mxCell>
        <mxCell id="Frr93Aqm_Cwvmtq9NTWZ-21" style="edgeStyle=orthogonalEdgeStyle;rounded=0;orthogonalLoop=1;jettySize=auto;html=1;entryX=0;entryY=0.5;entryDx=0;entryDy=0;" edge="1" parent="Frr93Aqm_Cwvmtq9NTWZ-53" source="Frr93Aqm_Cwvmtq9NTWZ-17" target="Frr93Aqm_Cwvmtq9NTWZ-20">
          <mxGeometry relative="1" as="geometry" />
        </mxCell>
        <mxCell id="Frr93Aqm_Cwvmtq9NTWZ-17" value="G1" style="ellipse;whiteSpace=wrap;html=1;aspect=fixed;" vertex="1" parent="Frr93Aqm_Cwvmtq9NTWZ-53">
          <mxGeometry x="630" y="320" width="50" height="50" as="geometry" />
        </mxCell>
        <mxCell id="Frr93Aqm_Cwvmtq9NTWZ-24" style="edgeStyle=orthogonalEdgeStyle;rounded=0;orthogonalLoop=1;jettySize=auto;html=1;entryX=0.5;entryY=0;entryDx=0;entryDy=0;exitX=0.5;exitY=0;exitDx=0;exitDy=0;" edge="1" parent="Frr93Aqm_Cwvmtq9NTWZ-53" source="Frr93Aqm_Cwvmtq9NTWZ-20" target="Frr93Aqm_Cwvmtq9NTWZ-23">
          <mxGeometry relative="1" as="geometry">
            <Array as="points">
              <mxPoint x="765" y="100" />
              <mxPoint x="970" y="100" />
            </Array>
          </mxGeometry>
        </mxCell>
        <mxCell id="Frr93Aqm_Cwvmtq9NTWZ-25" style="edgeStyle=orthogonalEdgeStyle;rounded=0;orthogonalLoop=1;jettySize=auto;html=1;entryX=0.5;entryY=0;entryDx=0;entryDy=0;" edge="1" parent="Frr93Aqm_Cwvmtq9NTWZ-53" source="Frr93Aqm_Cwvmtq9NTWZ-20" target="Frr93Aqm_Cwvmtq9NTWZ-22">
          <mxGeometry relative="1" as="geometry" />
        </mxCell>
        <mxCell id="Frr93Aqm_Cwvmtq9NTWZ-20" value="G2" style="ellipse;whiteSpace=wrap;html=1;aspect=fixed;" vertex="1" parent="Frr93Aqm_Cwvmtq9NTWZ-53">
          <mxGeometry x="740" y="320" width="50" height="50" as="geometry" />
        </mxCell>
        <mxCell id="Frr93Aqm_Cwvmtq9NTWZ-27" style="edgeStyle=orthogonalEdgeStyle;rounded=0;orthogonalLoop=1;jettySize=auto;html=1;entryX=0.5;entryY=0;entryDx=0;entryDy=0;" edge="1" parent="Frr93Aqm_Cwvmtq9NTWZ-53" source="Frr93Aqm_Cwvmtq9NTWZ-22" target="Frr93Aqm_Cwvmtq9NTWZ-26">
          <mxGeometry relative="1" as="geometry" />
        </mxCell>
        <mxCell id="Frr93Aqm_Cwvmtq9NTWZ-32" style="edgeStyle=orthogonalEdgeStyle;rounded=0;orthogonalLoop=1;jettySize=auto;html=1;" edge="1" parent="Frr93Aqm_Cwvmtq9NTWZ-53" source="Frr93Aqm_Cwvmtq9NTWZ-22" target="Frr93Aqm_Cwvmtq9NTWZ-29">
          <mxGeometry relative="1" as="geometry" />
        </mxCell>
        <mxCell id="Frr93Aqm_Cwvmtq9NTWZ-22" value="H" style="ellipse;whiteSpace=wrap;html=1;aspect=fixed;" vertex="1" parent="Frr93Aqm_Cwvmtq9NTWZ-53">
          <mxGeometry x="740" y="400" width="50" height="50" as="geometry" />
        </mxCell>
        <mxCell id="Frr93Aqm_Cwvmtq9NTWZ-40" style="edgeStyle=orthogonalEdgeStyle;rounded=0;orthogonalLoop=1;jettySize=auto;html=1;entryX=0.5;entryY=1;entryDx=0;entryDy=0;" edge="1" parent="Frr93Aqm_Cwvmtq9NTWZ-53" source="Frr93Aqm_Cwvmtq9NTWZ-26" target="Frr93Aqm_Cwvmtq9NTWZ-1">
          <mxGeometry relative="1" as="geometry">
            <mxPoint x="131" y="800" as="targetPoint" />
            <Array as="points">
              <mxPoint x="765" y="600" />
              <mxPoint x="125" y="600" />
            </Array>
          </mxGeometry>
        </mxCell>
        <mxCell id="Frr93Aqm_Cwvmtq9NTWZ-26" value="I" style="ellipse;whiteSpace=wrap;html=1;aspect=fixed;" vertex="1" parent="Frr93Aqm_Cwvmtq9NTWZ-53">
          <mxGeometry x="740" y="500" width="50" height="50" as="geometry" />
        </mxCell>
        <mxCell id="Frr93Aqm_Cwvmtq9NTWZ-31" style="edgeStyle=orthogonalEdgeStyle;rounded=0;orthogonalLoop=1;jettySize=auto;html=1;" edge="1" parent="Frr93Aqm_Cwvmtq9NTWZ-53" source="Frr93Aqm_Cwvmtq9NTWZ-29" target="Frr93Aqm_Cwvmtq9NTWZ-20">
          <mxGeometry relative="1" as="geometry">
            <Array as="points">
              <mxPoint x="870" y="345" />
            </Array>
          </mxGeometry>
        </mxCell>
        <mxCell id="Frr93Aqm_Cwvmtq9NTWZ-29" value="G3" style="ellipse;whiteSpace=wrap;html=1;aspect=fixed;" vertex="1" parent="Frr93Aqm_Cwvmtq9NTWZ-53">
          <mxGeometry x="840" y="400" width="50" height="50" as="geometry" />
        </mxCell>
        <mxCell id="Frr93Aqm_Cwvmtq9NTWZ-44" value="" style="group" vertex="1" connectable="0" parent="Frr93Aqm_Cwvmtq9NTWZ-53">
          <mxGeometry x="855" y="120" width="230" height="290" as="geometry" />
        </mxCell>
        <mxCell id="Frr93Aqm_Cwvmtq9NTWZ-35" style="edgeStyle=orthogonalEdgeStyle;rounded=0;orthogonalLoop=1;jettySize=auto;html=1;entryX=0.5;entryY=0;entryDx=0;entryDy=0;" edge="1" parent="Frr93Aqm_Cwvmtq9NTWZ-44" source="Frr93Aqm_Cwvmtq9NTWZ-23" target="Frr93Aqm_Cwvmtq9NTWZ-33">
          <mxGeometry relative="1" as="geometry" />
        </mxCell>
        <mxCell id="Frr93Aqm_Cwvmtq9NTWZ-36" style="edgeStyle=orthogonalEdgeStyle;rounded=0;orthogonalLoop=1;jettySize=auto;html=1;entryX=0.5;entryY=0;entryDx=0;entryDy=0;" edge="1" parent="Frr93Aqm_Cwvmtq9NTWZ-44" source="Frr93Aqm_Cwvmtq9NTWZ-23" target="Frr93Aqm_Cwvmtq9NTWZ-34">
          <mxGeometry relative="1" as="geometry" />
        </mxCell>
        <mxCell id="Frr93Aqm_Cwvmtq9NTWZ-23" value="J" style="ellipse;whiteSpace=wrap;html=1;aspect=fixed;" vertex="1" parent="Frr93Aqm_Cwvmtq9NTWZ-44">
          <mxGeometry x="90" width="50" height="50" as="geometry" />
        </mxCell>
        <mxCell id="Frr93Aqm_Cwvmtq9NTWZ-39" style="edgeStyle=orthogonalEdgeStyle;rounded=0;orthogonalLoop=1;jettySize=auto;html=1;entryX=1;entryY=0.5;entryDx=0;entryDy=0;" edge="1" parent="Frr93Aqm_Cwvmtq9NTWZ-44" source="Frr93Aqm_Cwvmtq9NTWZ-33" target="Frr93Aqm_Cwvmtq9NTWZ-37">
          <mxGeometry relative="1" as="geometry">
            <Array as="points">
              <mxPoint x="205" y="165" />
            </Array>
          </mxGeometry>
        </mxCell>
        <mxCell id="Frr93Aqm_Cwvmtq9NTWZ-33" value="K" style="ellipse;whiteSpace=wrap;html=1;aspect=fixed;" vertex="1" parent="Frr93Aqm_Cwvmtq9NTWZ-44">
          <mxGeometry x="180" y="70" width="50" height="50" as="geometry" />
        </mxCell>
        <mxCell id="Frr93Aqm_Cwvmtq9NTWZ-38" style="edgeStyle=orthogonalEdgeStyle;rounded=0;orthogonalLoop=1;jettySize=auto;html=1;entryX=0;entryY=0.5;entryDx=0;entryDy=0;" edge="1" parent="Frr93Aqm_Cwvmtq9NTWZ-44" source="Frr93Aqm_Cwvmtq9NTWZ-34" target="Frr93Aqm_Cwvmtq9NTWZ-37">
          <mxGeometry relative="1" as="geometry">
            <Array as="points">
              <mxPoint x="25" y="165" />
            </Array>
          </mxGeometry>
        </mxCell>
        <mxCell id="Frr93Aqm_Cwvmtq9NTWZ-34" value="L" style="ellipse;whiteSpace=wrap;html=1;aspect=fixed;" vertex="1" parent="Frr93Aqm_Cwvmtq9NTWZ-44">
          <mxGeometry y="70" width="50" height="50" as="geometry" />
        </mxCell>
        <mxCell id="Frr93Aqm_Cwvmtq9NTWZ-43" style="edgeStyle=orthogonalEdgeStyle;rounded=0;orthogonalLoop=1;jettySize=auto;html=1;entryX=0.5;entryY=0;entryDx=0;entryDy=0;" edge="1" parent="Frr93Aqm_Cwvmtq9NTWZ-44" source="Frr93Aqm_Cwvmtq9NTWZ-37" target="Frr93Aqm_Cwvmtq9NTWZ-42">
          <mxGeometry relative="1" as="geometry" />
        </mxCell>
        <mxCell id="Frr93Aqm_Cwvmtq9NTWZ-37" value="N" style="ellipse;whiteSpace=wrap;html=1;aspect=fixed;" vertex="1" parent="Frr93Aqm_Cwvmtq9NTWZ-44">
          <mxGeometry x="80" y="140" width="50" height="50" as="geometry" />
        </mxCell>
        <mxCell id="Frr93Aqm_Cwvmtq9NTWZ-42" value="O" style="ellipse;whiteSpace=wrap;html=1;aspect=fixed;" vertex="1" parent="Frr93Aqm_Cwvmtq9NTWZ-44">
          <mxGeometry x="80" y="210" width="50" height="50" as="geometry" />
        </mxCell>
        <mxCell id="Frr93Aqm_Cwvmtq9NTWZ-45" style="edgeStyle=orthogonalEdgeStyle;rounded=0;orthogonalLoop=1;jettySize=auto;html=1;entryX=0.5;entryY=0;entryDx=0;entryDy=0;" edge="1" parent="Frr93Aqm_Cwvmtq9NTWZ-53" source="Frr93Aqm_Cwvmtq9NTWZ-42" target="Frr93Aqm_Cwvmtq9NTWZ-4">
          <mxGeometry relative="1" as="geometry">
            <mxPoint x="1450" y="30" as="targetPoint" />
            <Array as="points">
              <mxPoint x="1170" y="360" />
              <mxPoint x="1170" />
              <mxPoint x="435" />
            </Array>
          </mxGeometry>
        </mxCell>
        <mxCell id="Frr93Aqm_Cwvmtq9NTWZ-46" style="edgeStyle=orthogonalEdgeStyle;rounded=0;orthogonalLoop=1;jettySize=auto;html=1;entryX=1;entryY=0;entryDx=0;entryDy=0;" edge="1" parent="Frr93Aqm_Cwvmtq9NTWZ-53" source="Frr93Aqm_Cwvmtq9NTWZ-37" target="Frr93Aqm_Cwvmtq9NTWZ-4">
          <mxGeometry relative="1" as="geometry">
            <Array as="points">
              <mxPoint x="1110" y="300" />
              <mxPoint x="1110" y="40" />
              <mxPoint x="453" y="40" />
            </Array>
          </mxGeometry>
        </mxCell>
        <mxCell id="Frr93Aqm_Cwvmtq9NTWZ-51" style="edgeStyle=orthogonalEdgeStyle;rounded=0;orthogonalLoop=1;jettySize=auto;html=1;entryX=1;entryY=0;entryDx=0;entryDy=0;" edge="1" parent="Frr93Aqm_Cwvmtq9NTWZ-53" source="Frr93Aqm_Cwvmtq9NTWZ-47" target="Frr93Aqm_Cwvmtq9NTWZ-1">
          <mxGeometry relative="1" as="geometry">
            <Array as="points">
              <mxPoint x="260" y="532" />
            </Array>
          </mxGeometry>
        </mxCell>
        <mxCell id="Frr93Aqm_Cwvmtq9NTWZ-47" value="Q" style="ellipse;whiteSpace=wrap;html=1;aspect=fixed;" vertex="1" parent="Frr93Aqm_Cwvmtq9NTWZ-53">
          <mxGeometry x="235" y="340" width="50" height="50" as="geometry" />
        </mxCell>
        <mxCell id="Frr93Aqm_Cwvmtq9NTWZ-52" style="edgeStyle=orthogonalEdgeStyle;rounded=0;orthogonalLoop=1;jettySize=auto;html=1;entryX=0;entryY=0;entryDx=0;entryDy=0;" edge="1" parent="Frr93Aqm_Cwvmtq9NTWZ-53" source="Frr93Aqm_Cwvmtq9NTWZ-48" target="Frr93Aqm_Cwvmtq9NTWZ-1">
          <mxGeometry relative="1" as="geometry">
            <Array as="points">
              <mxPoint x="85" y="532" />
            </Array>
          </mxGeometry>
        </mxCell>
        <mxCell id="Frr93Aqm_Cwvmtq9NTWZ-48" value="R" style="ellipse;whiteSpace=wrap;html=1;aspect=fixed;" vertex="1" parent="Frr93Aqm_Cwvmtq9NTWZ-53">
          <mxGeometry x="60" y="340" width="50" height="50" as="geometry" />
        </mxCell>
      </root>
    </mxGraphModel>
  </diagram>
</mxfile>
